<svg xmlns="http://www.w3.org/2000/svg" width="37.256" height="37.256" viewBox="0 0 37.256 37.256"><defs><style>.a{fill:#fff;}.b{opacity:0.402;}</style></defs><g transform="translate(-894 -440)"><g transform="translate(894 440)"><path class="a" d="M846.459,343.732a15.533,15.533,0,1,1-11.1-26.394v-3.092a18.628,18.628,0,1,0,13.283,31.668Z" transform="translate(-816.73 -314.246)"/></g><g class="b" transform="translate(894 440)"><g transform="translate(0)"><path class="a" d="M961.148,314.246a18.628,18.628,0,1,0,18.628,18.628A18.648,18.648,0,0,0,961.148,314.246Zm0,34.164a15.536,15.536,0,1,1,15.536-15.536A15.552,15.552,0,0,1,961.148,348.41Z" transform="translate(-942.52 -314.246)"/></g></g><path d="M859.147,356.1H858.9v-.247Z" transform="translate(53.382 102.067)"/></g></svg>