<svg xmlns="http://www.w3.org/2000/svg" width="497.427" height="274.873" viewBox="0 0 497.427 274.873"><defs><style>.a{fill:#f8a566;}</style></defs><path class="a" d="M1181.005,831.056v103.75q-8.8,3.195-17.89,6.01c-16.14,4.77-42.05,12.71-73.62,22.35l-.33.08c-2.3,4.67-4.78,9.16-7.44,13.66-66.38,110.95-209.29,151.97-361.74,116.73a47.223,47.223,0,0,1-35.46-55.34c.07-.31.13-.63.19-.94,5.34-26.13,30.98-42.96,56.96-36.97,111.71,25.78,214.06.9,257.9-72.36a150.245,150.245,0,0,0,13.97-31.26,21.321,21.321,0,0,1,13.91-14.48c8.58-2.65,17.08-5.26,22.67-6.92l11.39-3.63c31.9-9.72,58.14-17.74,73.4-22.24A301.953,301.953,0,0,0,1181.005,831.056Z" transform="translate(-683.578 -831.056)"/></svg>