<svg xmlns="http://www.w3.org/2000/svg" width="646.563" height="474.196" viewBox="0 0 646.563 474.196"><defs><style>.a{fill:#f8a566;}</style></defs><path class="a" d="M599.776,1737.174h0a46.857,46.857,0,0,1-15.209-2.546,47.613,47.613,0,0,1-24.266-18.735,48.271,48.271,0,0,1-6.6-15.109l-.05-.2c-.04-.162-.086-.349-.133-.531-6.8-27.04-20.608-52.4-41.047-75.387s-47.319-43.359-79.848-60.51a298.549,298.549,0,0,0-27.423-12.782,243.443,243.443,0,0,0-26.784-9.077,208.3,208.3,0,0,0-26.261-5.415,189.5,189.5,0,0,0-25.855-1.8,185.125,185.125,0,0,0-21.965,1.313,177.622,177.622,0,0,0-38.2,9.335,240.166,240.166,0,0,0-38.641,18.17,321.3,321.3,0,0,0-38.327,26.248,411.9,411.9,0,0,0-37.257,33.568,20.8,20.8,0,0,1-14.84,6.176,21.423,21.423,0,0,1-13.7-4.99A495.722,495.722,0,0,0,81.163,1593.1a510.341,510.341,0,0,0-47.289-28.362c-9.583-5.054-21.3-10.408-33.874-15.483V1262.978a307.009,307.009,0,0,1,40.175,60.994,293.913,293.913,0,0,1,24.165,68.636,279.273,279.273,0,0,1,5.348,38.376,295.827,295.827,0,0,1,.109,39.094,7.911,7.911,0,0,0,4.316,7.6c1.767.894,3.182,1.621,4.454,2.289,16.741,8.831,33.475,18.722,49.735,29.4a7.866,7.866,0,0,0,9.082-.316,412.806,412.806,0,0,1,38.179-25.764,352.224,352.224,0,0,1,38.791-19.974,302.91,302.91,0,0,1,39.106-14.029,265.7,265.7,0,0,1,39.125-7.929,277.985,277.985,0,0,1,33.444-2.025,285.158,285.158,0,0,1,37.609,2.521,305.442,305.442,0,0,1,37.792,7.546,339.972,339.972,0,0,1,37.9,12.547,389.694,389.694,0,0,1,37.944,17.524,368.617,368.617,0,0,1,60.92,40.3,357.372,357.372,0,0,1,47.3,46.437,312.556,312.556,0,0,1,33.46,47.869,249.218,249.218,0,0,1,11.472,23,193,193,0,0,1,7.931,21.6l5.063,13.4a48.649,48.649,0,0,1-19.271,58.173,47.469,47.469,0,0,1-12.008,5.244A46.088,46.088,0,0,1,599.776,1737.174Z" transform="translate(0 -1262.978)"/></svg>