<svg xmlns="http://www.w3.org/2000/svg" width="610.88" height="261.522" viewBox="0 0 610.88 261.522"><defs><style>.a{fill:#f8a566;}</style></defs><path class="a" d="M241.63,875.184a369.942,369.942,0,0,1-54.416-4.024c-43.135-5.558-83.6-17.615-120.27-35.837A343.723,343.723,0,0,1,32,815.331,334.5,334.5,0,0,1,0,791.579V634a226.91,226.91,0,0,0,13.238,25.1,235.862,235.862,0,0,0,28.626,37.712,239.6,239.6,0,0,0,70.126,51.716c26.928,13.2,56.766,21.934,88.682,25.946a272.647,272.647,0,0,0,40.892,3.075,285.581,285.581,0,0,0,32.957-1.933,303.147,303.147,0,0,0,33.221-5.793A366.154,366.154,0,0,0,426.3,722.78a320.707,320.707,0,0,0,51.522-39.907,440.368,440.368,0,0,0,45.831-50.489,48.106,48.106,0,0,1,26.123-17.172,49.46,49.46,0,0,1,10.1-1.5c.739-.033,1.491-.05,2.233-.05a49.606,49.606,0,0,1,19.706,4.067,49.09,49.09,0,0,1,16.422,11.582,50.521,50.521,0,0,1,3.615,4.343,49.391,49.391,0,0,1,9.006,29.889,50.022,50.022,0,0,1-10.606,29.412,533.739,533.739,0,0,1-58.73,63.937,416.577,416.577,0,0,1-64.291,49.156C430.41,834.686,380.356,854.59,328.461,865.2a398.8,398.8,0,0,1-43.484,7.485A381.222,381.222,0,0,1,241.63,875.184Z" transform="translate(0 -613.662)"/></svg>