<svg xmlns="http://www.w3.org/2000/svg" width="380.998" height="358.382" viewBox="0 0 380.998 358.382"><defs><style>.a{fill:#f8a566;}</style></defs><path class="a" d="M1180.995,1304.5v115.24q-7.29,4.92-15.18,10.23l-.3.17c-.83,5.14-1.89,10.17-3.13,15.24-31.07,125.55-155.82,206.57-311.97,217.4a47.242,47.242,0,0,1-50.1-42.58c-.03-.32-.06-.64-.1-.96-2.52-26.56,17.08-50.16,43.69-52.02,114.42-7.97,205.07-61.69,225.6-144.6a150.839,150.839,0,0,0,4.24-33.98,21.317,21.317,0,0,1,9.08-17.93c7.43-5.03,14.8-10.02,19.66-13.24l9.84-6.8c27.68-18.62,50.44-33.96,63.72-42.73Q1178.55,1306.245,1180.995,1304.5Z" transform="translate(-799.997 -1304.5)"/></svg>