<svg xmlns="http://www.w3.org/2000/svg" width="539.8" height="363.297" viewBox="0 0 539.8 363.297"><defs><style>.a{fill:#f8a566;}</style></defs><path class="a" d="M497.92,2251.642h0a41.953,41.953,0,0,1-13.617-2.278,42.652,42.652,0,0,1-21.729-16.763,43.15,43.15,0,0,1-5.911-13.518v-.008c-.052-.213-.106-.433-.162-.648-6.086-24.193-18.45-46.886-36.748-67.449-18.312-20.579-42.363-38.794-71.485-54.138a267.181,267.181,0,0,0-24.554-11.434,218.265,218.265,0,0,0-23.979-8.121,186.676,186.676,0,0,0-23.511-4.845,169.751,169.751,0,0,0-23.148-1.607,165.892,165.892,0,0,0-19.664,1.173c-22.132,2.734-45.277,11.014-68.792,24.608a287.588,287.588,0,0,0-34.313,23.484,368.788,368.788,0,0,0-33.356,30.033,18.572,18.572,0,0,1-13.286,5.527,19.186,19.186,0,0,1-12.265-4.465A457.836,457.836,0,0,0,0,2102.085v-213.74a262.509,262.509,0,0,1,18.552,55.013,249.56,249.56,0,0,1,4.788,34.336,264.58,264.58,0,0,1,.1,34.977,7.079,7.079,0,0,0,3.865,6.8c1.113.563,2.573,1.3,3.986,2.047,14.988,7.9,29.969,16.749,44.526,26.3a7.046,7.046,0,0,0,8.131-.283,369.868,369.868,0,0,1,34.18-23.051,315.58,315.58,0,0,1,34.728-17.87,271.427,271.427,0,0,1,35.01-12.552,238.079,238.079,0,0,1,35.027-7.094,249.016,249.016,0,0,1,29.939-1.812,255.484,255.484,0,0,1,33.67,2.255,273.547,273.547,0,0,1,33.835,6.751,304.662,304.662,0,0,1,33.935,11.224,348.934,348.934,0,0,1,33.971,15.679,330.08,330.08,0,0,1,54.54,36.061,319.894,319.894,0,0,1,42.345,41.547,279.72,279.72,0,0,1,29.956,42.828,222.664,222.664,0,0,1,10.271,20.58,172.552,172.552,0,0,1,7.1,19.324l4.532,11.989a43.513,43.513,0,0,1-17.253,52.046,42.5,42.5,0,0,1-10.75,4.691A41.258,41.258,0,0,1,497.92,2251.642Z" transform="translate(0 -1888.345)"/></svg>