<svg xmlns="http://www.w3.org/2000/svg" width="180" height="36.107" viewBox="0 0 180 36.107"><defs><style>.a{fill:#0092d3;}.b{fill:#fff;}.c{fill:#f1cf00;}</style></defs><g transform="translate(-0.054 -0.2)"><path class="a" d="M180.054,13.3a6.979,6.979,0,0,1-1.6,4.472c-.106.106-.106.213-.106.426-.106,5.218-4.472,8.2-9.69,8.2a18.639,18.639,0,0,1-3.407-.426c-.319-.106-.532,0-.745.319a12.43,12.43,0,0,1-9.051,5.856,13.674,13.674,0,0,1-7.241-.639.706.706,0,0,0-.745.213c-2.023,2.556-6.6,4.366-11.926,4.579a19.517,19.517,0,0,1-10.116-2.13.679.679,0,0,0-.639,0,9.986,9.986,0,0,1-5.43,1.171,9.591,9.591,0,0,1-6.708-3.194.512.512,0,0,0-.639-.213,10.608,10.608,0,0,1-3.727.319c-3.833-.213-7.028-2.236-8.092-4.685a.55.55,0,0,0-.745-.319,12.974,12.974,0,0,1-5.111.639A13.519,13.519,0,0,1,89.014,26.5a.484.484,0,0,0-.532,0,7.414,7.414,0,0,1-2.662.532h-.106a14.746,14.746,0,0,1-4.9.532,12.606,12.606,0,0,1-5.856-1.7.679.679,0,0,0-.639,0,8.482,8.482,0,0,1-4.685,1.065,10.746,10.746,0,0,1-3.3-.852.679.679,0,0,0-.639,0,13.208,13.208,0,0,1-7.028,1.491,13.8,13.8,0,0,1-4.9-1.171.484.484,0,0,0-.532,0,8.883,8.883,0,0,1-3.727.639,7.9,7.9,0,0,1-3.194-.852.679.679,0,0,0-.639,0,11.918,11.918,0,0,1-6.921,1.384,13.209,13.209,0,0,1-4.792-1.171.484.484,0,0,0-.532,0,10.125,10.125,0,0,1-3.727.639,9.115,9.115,0,0,1-2.449-.532.324.324,0,0,0-.426,0A19.736,19.736,0,0,1,18.2,27.672a21.888,21.888,0,0,1-6.282-1.278c-.106-.106-.319,0-.426,0a10.992,10.992,0,0,1-3.62.745H7.663a7.8,7.8,0,0,1-3.94-1.171.1.1,0,0,1-.106-.106A6.78,6.78,0,0,1,.955,18.728c.106-.426.213-1.278.426-2.236l.106-.319c0-.213.106-.426.106-.745,0-.213,0-.426-.213-.532-.213-.213-.426-.532-.639-.745-1.917-2.981.319-7.773,4.9-10.648a11.414,11.414,0,0,1,8.305-1.917.64.64,0,0,0,.426-.106c0-.426.213-.426.319-.532A9.473,9.473,0,0,1,18.737.2c1.171,0,4.792,0,5.856,2.875h0v.213a3.384,3.384,0,0,1,.213,1.491h0V5.1a.6.6,0,0,0,.532.639h0c.319,0,.639-.106.639-.426a7.625,7.625,0,0,1,1.7-2.662A7.651,7.651,0,0,1,33.218.2a6.513,6.513,0,0,1,5,2.236A5.013,5.013,0,0,1,39.394,5.2a.8.8,0,0,0,.745.532,10.95,10.95,0,0,1,1.81-.106,26.108,26.108,0,0,1,2.875.213.606.606,0,0,0,.745-.426,5.975,5.975,0,0,1,1.278-2.449h0A7.4,7.4,0,0,1,52.6.306a6.513,6.513,0,0,1,5,2.236A6.046,6.046,0,0,1,58.88,5.311c.106.319.319.639.745.532a10.95,10.95,0,0,1,1.81-.106,15.476,15.476,0,0,1,3.194.319.606.606,0,0,0,.745-.426,8.859,8.859,0,0,1,2.768-4.366A6.154,6.154,0,0,1,71.871.2a6.587,6.587,0,0,1,5.111,1.917,4.259,4.259,0,0,1,1.065,1.917.673.673,0,0,0,.852.426,12.6,12.6,0,0,1,4.579-.532,10.818,10.818,0,0,1,6.389,2.449.515.515,0,0,0,.745,0,11.514,11.514,0,0,1,6.282-1.81,10.357,10.357,0,0,1,7.241,2.662.648.648,0,0,0,.852,0A10.682,10.682,0,0,1,111.8,4.992a11,11,0,0,1,6.069,1.7.679.679,0,0,0,.639,0,8.388,8.388,0,0,1,4.685-1.384,8.9,8.9,0,0,1,4.153,1.065.679.679,0,0,0,.639,0,8.171,8.171,0,0,1,3.62-.745,8.291,8.291,0,0,1,3.94.958.679.679,0,0,0,.639,0,13.074,13.074,0,0,1,6.282-1.6A13.416,13.416,0,0,1,149.6,7.015a.91.91,0,0,0,.745,0,13.382,13.382,0,0,1,14.481.213c.213.106.426.213.639,0a11.552,11.552,0,0,1,5.643-1.6,9.948,9.948,0,0,1,3.62.639A8.693,8.693,0,0,1,177.5,7.76,7.386,7.386,0,0,1,180.054,13.3Z" transform="translate(0 0)"/><g transform="translate(4.469 3.927)"><path class="b" d="M12.292,20.4a6.015,6.015,0,0,1-4.685,2.236,4.847,4.847,0,0,1-2.13-.532,2.973,2.973,0,0,1-1.065-3.3c.213-1.065.745-4.259,1.278-6.921H4.306a.1.1,0,0,1-.106-.106l.426-2.13a.1.1,0,0,1,.106-.106H6.01c.213-1.171.319-1.917.319-1.917a.1.1,0,0,1,.106-.106L11.547,5.6a.1.1,0,0,1,.106.106s-.319,1.7-.639,3.833H14s.106,0,0,.106l-.426,2.13a.1.1,0,0,1-.106.106H10.482c-.426,2.236-.745,4.472-.958,5.218a.64.64,0,0,1-.106.426c0,.319-.106.532-.106.745,0,2.023,1.6,1.6,2.556,1.6.639-.106.639.213.426.532Z" transform="translate(-4.2 -3.577)"/><path class="b" d="M26.575,20.811a4.341,4.341,0,0,1-3.3,1.7,2.913,2.913,0,0,1-2.981-3.727c.106-.852.532-3.088.852-4.792.426-2.449-2.236-1.6-2.768,1.278C17.737,19,17.2,21.982,17.2,21.982a.1.1,0,0,1-.106.106H12.306a.1.1,0,0,1-.106-.106S14.756,6.968,15.181,4.306a.1.1,0,0,1,.106-.106h4.9a.1.1,0,0,1,.106.106c-.319,1.81-.745,4.366-1.278,7.56A6.034,6.034,0,0,1,23.593,9.1c1.81,0,3.088,1.6,2.662,4.153-.213,1.065-.319,2.023-.639,3.833-.745,3.833,1.384,2.981.958,3.727Z" transform="translate(-3.682 -3.668)"/><path class="b" d="M31.2,22.121h-4.9a.1.1,0,0,1-.106-.106s1.171-5.643,1.491-7.347c.745-3.94-1.171-3.088-.852-3.727a4.413,4.413,0,0,1,3.3-1.81c2.023,0,3.194,1.491,2.768,3.727-.319,1.917-1.6,9.157-1.6,9.157a.1.1,0,0,1-.106.106ZM30.672,8.385c-1.6,0-2.662-1.065-2.449-2.343a3.3,3.3,0,0,1,3.3-2.343c1.6,0,2.662,1.065,2.449,2.343a3.3,3.3,0,0,1-3.3,2.343Z" transform="translate(-2.774 -3.7)"/><path class="b" d="M44.554,18.277c-.532,2.981-4.259,4.046-7.134,4.046-2.236,0-5.643-.745-5.218-3.194a2.869,2.869,0,0,1,2.768-2.236,2.9,2.9,0,0,1,1.81.426c.106.213,0,.532-.106,1.065a1.106,1.106,0,0,0,1.171,1.491c.958,0,1.384-.426,1.491-1.171.213-1.171-1.491-1.491-3.194-2.023-1.6-.639-2.981-1.81-2.768-3.727v-.106C33.8,10.291,37.1,8.8,39.656,8.8c2.875,0,5.643,1.065,5.324,3.194a2.694,2.694,0,0,1-2.768,2.13,3.361,3.361,0,0,1-1.7-.426c-.106-.213,0-.532.106-1.065.213-.958-.213-1.491-1.065-1.384a1.614,1.614,0,0,0-1.384,1.171c-.213,1.171,1.171,1.491,2.768,2.023,2.13.639,4.046,1.6,3.62,3.833Z" transform="translate(-2.388 -3.37)"/><path class="b" d="M65.161,4.2h5a.1.1,0,0,1,.106.106S68.355,15.38,68.036,17.084c-.745,3.94,1.171,3.088.852,3.727a4.894,4.894,0,0,1-3.514,1.81c-2.023,0-3.194-1.491-2.768-3.727,0-.106,2.556-14.481,2.556-14.481-.106-.213,0-.213,0-.213Z" transform="translate(-0.421 -3.668)"/><path class="b" d="M83.582,20.519a4.413,4.413,0,0,1-3.3,1.81,2.683,2.683,0,0,1-2.875-2.875c-1.171,1.6-2.662,2.768-4.472,2.768-3.088,0-4.259-3.407-3.727-6.815C69.846,12,72.189,8.7,75.383,8.7a3.359,3.359,0,0,1,3.3,2.343c.213-1.065.319-1.7.319-1.7a.1.1,0,0,1,.106-.106h5a.1.1,0,0,1,.106.106s-1.171,5.643-1.491,7.347c-.639,4.046,1.171,3.194.852,3.833Zm-5.43-5c.319-1.917,0-3.407-1.278-3.407-1.171,0-2.13,1.491-2.449,3.407s0,3.407,1.278,3.407c1.171-.106,2.13-1.6,2.449-3.407Z" transform="translate(0.005 -3.376)"/><path class="b" d="M97.988,20.513a4.341,4.341,0,0,1-3.3,1.7,2.913,2.913,0,0,1-2.981-3.727c.106-.852.532-3.088.852-4.792.426-2.449-2.236-1.6-2.768,1.278s-1.171,6.708-1.171,6.708a.1.1,0,0,1-.106.106h-5a.1.1,0,0,1-.106-.106s1.171-5.643,1.491-7.347c.745-3.94-1.171-3.088-.745-3.727a4.413,4.413,0,0,1,3.3-1.81,2.683,2.683,0,0,1,2.875,2.875A6.066,6.066,0,0,1,95.006,8.8c1.917,0,3.194,1.6,2.662,4.153-.213,1.065-.426,2.023-.745,3.833-.639,3.833,1.384,2.981,1.065,3.727Z" transform="translate(0.932 -3.37)"/><path class="b" d="M102.406,27.76c-3.62,0-4.9-2.449-5-3.407-.106-1.171.106-1.491.426-1.384.532.106.958,1.917,3.727,1.917a3.9,3.9,0,0,0,3.727-3.088,16.531,16.531,0,0,1,.426-2.236,5.327,5.327,0,0,1-4.366,2.556c-3.088,0-4.259-3.407-3.727-6.708C98.254,12,100.49,8.7,103.79,8.7a3.327,3.327,0,0,1,3.3,2.449c.213-1.171.319-1.81.319-1.81a.1.1,0,0,1,.106-.106h4.792a.1.1,0,0,1,.106.106s-1.278,7.88-1.81,10.967c-.639,4.366-3.62,7.454-8.2,7.454Zm4.046-12.245c.319-1.917-.106-3.407-1.278-3.407s-2.13,1.491-2.449,3.407.106,3.3,1.278,3.3c1.278,0,2.13-1.491,2.449-3.3Z" transform="translate(1.838 -3.376)"/><path class="b" d="M125.333,20.513a4.413,4.413,0,0,1-3.3,1.81,2.683,2.683,0,0,1-2.875-2.875,5.612,5.612,0,0,1-4.472,2.875c-1.81,0-3.088-1.6-2.662-4.153.213-1.065.319-2.023.639-3.833.745-3.94-1.384-3.088-.958-3.727A4.413,4.413,0,0,1,115,8.8a2.913,2.913,0,0,1,2.981,3.727c-.106.852-.532,3.088-.852,4.792-.426,2.449,1.917,1.6,2.556-1.171.532-2.875,1.171-6.815,1.171-6.815a.1.1,0,0,1,.106-.106h5a.1.1,0,0,1,.106.106s-1.171,5.643-1.491,7.347c-.745,4.046,1.065,3.194.745,3.833Z" transform="translate(2.763 -3.37)"/><path class="b" d="M139.382,20.519a4.413,4.413,0,0,1-3.3,1.81,2.683,2.683,0,0,1-2.875-2.875c-1.171,1.6-2.662,2.768-4.472,2.768-3.088,0-4.259-3.407-3.727-6.815C125.646,12,127.989,8.7,131.183,8.7a3.359,3.359,0,0,1,3.3,2.343c.213-1.065.319-1.7.319-1.7a.1.1,0,0,1,.107-.106h5a.1.1,0,0,1,.106.106s-1.171,5.643-1.491,7.347c-.639,4.046,1.278,3.194.852,3.833Zm-5.43-5c.319-1.917,0-3.407-1.278-3.407-1.171,0-2.13,1.491-2.449,3.407s0,3.407,1.278,3.407c1.171-.106,2.13-1.6,2.449-3.407Z" transform="translate(3.62 -3.376)"/><path class="b" d="M143.906,27.76c-3.62,0-4.9-2.449-5-3.407-.106-1.171.106-1.491.426-1.384.532.106.958,1.917,3.727,1.917a3.9,3.9,0,0,0,3.727-3.088,16.534,16.534,0,0,1,.426-2.236,5.327,5.327,0,0,1-4.366,2.556c-3.088,0-4.259-3.407-3.727-6.708C139.754,12,141.99,8.7,145.29,8.7a3.327,3.327,0,0,1,3.3,2.449c.213-1.171.319-1.81.319-1.81a.1.1,0,0,1,.106-.106h4.792a.1.1,0,0,1,.106.106s-1.278,7.88-1.81,10.967c-.639,4.366-3.62,7.454-8.2,7.454Zm4.046-12.245c.319-1.917-.106-3.407-1.278-3.407s-2.13,1.491-2.449,3.407.106,3.3,1.278,3.3c1.278,0,2.13-1.491,2.449-3.3Z" transform="translate(4.527 -3.376)"/><path class="b" d="M164.951,18.29a8.111,8.111,0,0,1-6.708,3.94c-3.727,0-6.176-2.981-5.537-6.815A8.5,8.5,0,0,1,161.012,8.6c4.046,0,5.324,2.556,5.111,4.366-.745,3.94-5.324,4.366-8.518,3.833.426,2.449,3.727,2.768,7.028,1.065a.2.2,0,0,1,.319,0c.106.106.106.213,0,.426Zm-7.134-3.62c2.236.213,3.407-.639,3.62-1.917a.95.95,0,0,0-1.065-1.171h-.106a1.513,1.513,0,0,0-.639.213,4.524,4.524,0,0,0-1.81,2.875Z" transform="translate(5.417 -3.382)"/></g><g transform="translate(47.167 3.927)"><path class="c" d="M49.3,22.121h-4.9a.1.1,0,0,1-.106-.106s1.171-5.643,1.491-7.347c.745-3.94-1.171-3.088-.852-3.727a4.413,4.413,0,0,1,3.3-1.81c2.023,0,3.194,1.491,2.768,3.727-.319,1.917-1.6,9.157-1.6,9.157.106.106-.106.106-.106.106ZM48.772,8.385c-1.6,0-2.662-1.065-2.449-2.343a3.3,3.3,0,0,1,3.3-2.343c1.6,0,2.662,1.065,2.449,2.343a3.3,3.3,0,0,1-3.3,2.343Z" transform="translate(-44.3 -3.7)"/><path class="c" d="M62.754,18.277c-.532,2.981-4.259,4.046-7.134,4.046-2.236,0-5.643-.745-5.218-3.194a2.869,2.869,0,0,1,2.768-2.236,2.9,2.9,0,0,1,1.81.426c.106.213,0,.532-.106,1.065a1.106,1.106,0,0,0,1.171,1.491c.958,0,1.384-.426,1.491-1.171.213-1.171-1.491-1.491-3.194-2.023-1.6-.639-2.981-1.81-2.768-3.727v-.106C52,10.291,55.3,8.8,57.856,8.8c2.875,0,5.643,1.065,5.324,3.194a2.694,2.694,0,0,1-2.768,2.13,3.361,3.361,0,0,1-1.7-.426c-.106-.213,0-.532.106-1.065.213-.958-.213-1.491-1.065-1.384a1.614,1.614,0,0,0-1.384,1.171c-.213,1.171,1.171,1.491,2.768,2.023,2.13.639,4.046,1.6,3.62,3.833Z" transform="translate(-43.907 -3.37)"/><path class="c" d="M108.572,30.168a1.181,1.181,0,0,1-1.171-1.384A1.7,1.7,0,0,1,109,27.4a1.181,1.181,0,0,1,1.171,1.384,1.7,1.7,0,0,1-1.6,1.384Z" transform="translate(-40.212 -2.164)"/><path class="c" d="M117.524,28.23a4.368,4.368,0,0,1-3.727,2.236,3.166,3.166,0,0,1-3.194-3.833,4.784,4.784,0,0,1,4.472-3.833c1.6,0,3.088.639,2.768,2.023a1.712,1.712,0,0,1-1.6,1.384,1.8,1.8,0,0,1-.958-.213,1.158,1.158,0,0,1,.106-.532c.106-.532-.106-.958-.532-.958-.745,0-1.384,1.171-1.384,2.236-.213,2.556,2.236,2.236,3.833,1.384.106,0,.106-.106.213,0,.106,0,.106,0,0,.106Z" transform="translate(-40.006 -2.462)"/><path class="c" d="M120.6,30.567a3.188,3.188,0,0,1-3.3-3.833,4.688,4.688,0,0,1,4.579-3.833,3.188,3.188,0,0,1,3.3,3.833,4.6,4.6,0,0,1-4.579,3.833Zm.319-1.6c.852,0,1.384-.958,1.6-2.236.213-1.171,0-2.236-.745-2.236-.852,0-1.384,1.065-1.6,2.236s-.106,2.236.745,2.236Z" transform="translate(-39.572 -2.456)"/><path class="c" d="M137.055,29.5a2.384,2.384,0,0,1-1.917.958,1.671,1.671,0,0,1-1.7-2.13c.106-.532.319-1.81.532-2.768.213-1.384-1.171-.958-1.491.745v.213c-.106.958-.532,3.514-.532,3.514a.1.1,0,0,1-.106.106h-2.875s-.106,0,0-.106c0,0,.426-2.662.639-3.514.106-.319.106-.745.213-.958.213-1.384-1.171-.958-1.491.745-.319,1.6-.639,3.833-.639,3.833a.1.1,0,0,1-.106.106H124.7s-.106,0,0-.106c0,0,.639-3.194.852-4.153.426-2.236-.639-1.81-.426-2.13a2.384,2.384,0,0,1,1.917-.958,1.658,1.658,0,0,1,1.7,1.6,3.17,3.17,0,0,1,2.556-1.6,1.6,1.6,0,0,1,1.6,1.7,3.215,3.215,0,0,1,2.556-1.7c1.065,0,1.81.958,1.491,2.343-.106.639-.213,1.171-.426,2.236-.426,2.13.745,1.6.532,2.023Z" transform="translate(-39.093 -2.456)"/></g></g></svg>