<svg xmlns="http://www.w3.org/2000/svg" width="48.764" height="51.885" viewBox="0 0 48.764 51.885"><defs><style>.a{fill:#fff;}</style></defs><g transform="translate(-135.02 -8.366)"><g transform="translate(181.53 19.819)"><path class="a" d="M205.374,25.307V65.4a.169.169,0,0,1-.171.171h-1.912a.173.173,0,0,1-.171-.171V25.307a.173.173,0,0,1,.171-.171H205.2A.169.169,0,0,1,205.374,25.307Z" transform="translate(-203.12 -25.136)"/></g><g transform="translate(135.717 43.682)"><rect class="a" width="2.247" height="16.569" rx="0.25" transform="translate(0)"/></g><g transform="translate(150.032 23.637)"><path class="a" d="M159.254,30.9V67.169a.169.169,0,0,1-.171.171h-1.912a.173.173,0,0,1-.171-.171V30.9a.173.173,0,0,1,.171-.171h1.912A.169.169,0,0,1,159.254,30.9Z" transform="translate(-157 -30.726)"/></g><g transform="translate(166.259 28.411)"><path class="a" d="M183.014,37.887v31.5a.169.169,0,0,1-.171.171h-1.912a.173.173,0,0,1-.171-.171v-31.5a.173.173,0,0,1,.171-.171h1.912A.169.169,0,0,1,183.014,37.887Z" transform="translate(-180.76 -37.716)"/></g><g transform="translate(135.02 8.366)"><path class="a" d="M179.966,8.537v5.73a.173.173,0,0,1-.171.171h-1.912a.178.178,0,0,1-.171-.171V12.361L166.737,24.184a.166.166,0,0,1-.212.027l-16.118-9.473-13.7,14.609a.171.171,0,0,1-.123.055.16.16,0,0,1-.116-.048l-1.393-1.3a.156.156,0,0,1-.055-.116.165.165,0,0,1,.048-.123l14.841-15.838a.175.175,0,0,1,.212-.027l16.1,9.473,10.046-10.8h-2.2a.178.178,0,0,1-.171-.171V8.537a.173.173,0,0,1,.171-.171h5.73A.169.169,0,0,1,179.966,8.537Z" transform="translate(-135.02 -8.366)"/></g></g></svg>