<svg xmlns="http://www.w3.org/2000/svg" width="68.788" height="58.352" viewBox="0 0 68.788 58.352"><defs><style>.a{fill:#fff;}</style></defs><g transform="translate(-0.681 -7.026)"><g transform="translate(0.681 7.026)"><g transform="translate(12.833 6.878)"><path class="a" d="M69.862,65.96a1.251,1.251,0,0,1-1.637,1.422L57.758,63.831l-.123.038a49.6,49.6,0,0,1-12.273,1.975c-15.424,0-27.981-11.182-27.981-24.93a1.257,1.257,0,1,1,2.513,0c0,12.358,11.428,22.417,25.468,22.417a46.5,46.5,0,0,0,11.981-2.013,1.308,1.308,0,0,1,.822,0l8.83,3-1.652-8.776a1.267,1.267,0,0,1,.284-1.061,20.485,20.485,0,0,0,5.2-13.564c0-12.365-11.42-22.425-25.461-22.425a28.537,28.537,0,0,0-5.157.461,1.272,1.272,0,0,1-1.468-1.014,1.266,1.266,0,0,1,1.014-1.46,31.535,31.535,0,0,1,5.61-.5c15.424,0,27.974,11.19,27.974,24.938a22.974,22.974,0,0,1-5.3,14.609l-.115.138Z" transform="translate(-17.38 -15.976)"/></g><path class="a" d="M30.5,17.839a1.249,1.249,0,0,0-1.014-.853l-8.8-1.283L16.742,7.725a1.256,1.256,0,0,0-2.252,0L10.556,15.7l-8.8,1.283a1.258,1.258,0,0,0-.7,2.144l6.371,6.21L5.922,34.1a1.256,1.256,0,0,0,1.829,1.322l7.87-4.135,7.87,4.135a1.28,1.28,0,0,0,1.322-.092,1.239,1.239,0,0,0,.5-1.23l-1.5-8.761,6.363-6.21A1.26,1.26,0,0,0,30.5,17.839Zm-8.915,6.156a1.256,1.256,0,0,0-.361,1.114l1.184,6.909-6.2-3.258a1.256,1.256,0,0,0-1.168,0l-6.2,3.258,1.184-6.909a1.277,1.277,0,0,0-.361-1.114L4.638,19.107,11.57,18.1a1.257,1.257,0,0,0,.945-.692l3.1-6.286,3.1,6.286a1.276,1.276,0,0,0,.945.692L26.6,19.107Z" transform="translate(-0.681 -7.026)"/><g transform="translate(27.366 21.949)"><path class="a" d="M63.234,36.839a1.261,1.261,0,0,1-1.26,1.26H37.543a1.257,1.257,0,0,1,0-2.513H61.974A1.259,1.259,0,0,1,63.234,36.839Z" transform="translate(-36.29 -35.586)"/></g><g transform="translate(27.366 30.464)"><path class="a" d="M63.234,47.919a1.266,1.266,0,0,1-1.26,1.26H37.543a1.257,1.257,0,0,1,0-2.513H61.974A1.259,1.259,0,0,1,63.234,47.919Z" transform="translate(-36.29 -46.666)"/></g><g transform="translate(27.366 38.971)"><path class="a" d="M48.686,59a1.253,1.253,0,0,1-1.253,1.253H37.543a1.257,1.257,0,0,1,0-2.513h9.891A1.259,1.259,0,0,1,48.686,59Z" transform="translate(-36.29 -57.736)"/></g></g></g></svg>