<svg xmlns="http://www.w3.org/2000/svg" xmlns:xlink="http://www.w3.org/1999/xlink" width="102.051" height="101.312" viewBox="0 0 102.051 101.312"><defs><style>.a{fill:#ee6700;}.b{clip-path:url(#a);}</style><clipPath id="a"><rect class="a" width="102.051" height="101.312"/></clipPath></defs><g transform="translate(238.94 -166.755)"><g class="b" transform="translate(-238.94 166.755)"><g transform="translate(0.728 0.732)"><path class="a" d="M-187.65,167.76a50.168,50.168,0,0,0-50.29,49.926,50.168,50.168,0,0,0,50.29,49.926c27.741,0,50.3-22.4,50.3-49.926S-159.909,167.76-187.65,167.76Zm.015,96.517a46.809,46.809,0,0,1-46.926-46.591,46.815,46.815,0,0,1,46.926-46.6,46.815,46.815,0,0,1,46.926,46.6A46.809,46.809,0,0,1-187.636,264.277Z" transform="translate(237.94 -167.76)"/><g transform="translate(48.288 24.115)"><path class="a" d="M-167.346,224.026v.066a1.474,1.474,0,0,1-.029.313,1.744,1.744,0,0,1-.087.386,2.29,2.29,0,0,1-1.434,1.471,1.758,1.758,0,0,1-.386.095,2.138,2.138,0,0,1-.371.036,2.923,2.923,0,0,1,.066-.364h-.08a1.958,1.958,0,0,1-1.951-1.937V202.824a1.975,1.975,0,0,1,.575-1.376,1.955,1.955,0,0,1,1.376-.568h.007a1.958,1.958,0,0,1,1.951,1.937V224.1A2.016,2.016,0,0,1-167.346,224.026Z" transform="translate(171.62 -200.88)"/></g><g transform="translate(50.603 47.603)"><path class="a" d="M-147.179,235.659a1.942,1.942,0,0,1-1.944,1.915h-.022l-16.994-.189a1.972,1.972,0,0,1-1.937-1.951,2.8,2.8,0,0,1-.357.066.3.3,0,0,1-.007-.08,1.892,1.892,0,0,1,.022-.291,3,3,0,0,1,.087-.386,2.323,2.323,0,0,1,1.434-1.471,1.664,1.664,0,0,1,.386-.095,1.63,1.63,0,0,1,.379-.036,2.016,2.016,0,0,1-.073.364h.095l16.994.2a1.951,1.951,0,0,1,1.369.582A1.955,1.955,0,0,1-147.179,235.659Z" transform="translate(168.44 -233.14)"/></g><g transform="translate(31.841 48.988)"><path class="a" d="M-175.147,235.389h0a1.157,1.157,0,0,1-.012,1.635l-.006.006L-192.226,253.6a1.177,1.177,0,0,1-1.651-.017h0a1.157,1.157,0,0,1,.016-1.637l0,0,17.062-16.577a1.176,1.176,0,0,1,1.651.018" transform="translate(194.209 -235.041)"/></g><g transform="translate(46.797 46.426)"><path class="a" d="M-170.167,238.5a3.491,3.491,0,0,0,3.5-3.475,3.5,3.5,0,0,0-3.5-3.5,3.5,3.5,0,0,0-3.5,3.5,3.494,3.494,0,0,0,3.5,3.475" transform="translate(173.667 -231.523)"/></g><g transform="translate(80.521 48.315)"><path class="a" d="M-117.535,235.8a1.683,1.683,0,0,1-1.675,1.666v-.01h-6.452a1.675,1.675,0,0,1-1.195-.491,1.672,1.672,0,0,1-.493-1.177,1.7,1.7,0,0,1,.493-1.187,1.714,1.714,0,0,1,1.195-.479l6.45.012v-.012a1.716,1.716,0,0,1,1.182.491v.012a1.64,1.64,0,0,1,.5,1.174" transform="translate(127.35 -234.118)"/></g><g transform="translate(71.151 70.692)"><path class="a" d="M-132.31,271.049a1.65,1.65,0,0,1-.5,1.187,1.674,1.674,0,0,1-1.182.479,1.628,1.628,0,0,1-1.185-.491l-4.563-4.53a1.673,1.673,0,0,1-.484-1.174,1.6,1.6,0,0,1,.5-1.177v-.013a1.676,1.676,0,0,1,1.182-.479,1.631,1.631,0,0,1,1.185.489l4.564,4.535a1.676,1.676,0,0,1,.483,1.174" transform="translate(140.219 -264.851)"/></g><g transform="translate(48.579 79.937)"><path class="a" d="M-167.853,279.226h-.012v6.4a1.638,1.638,0,0,1-.493,1.174,1.7,1.7,0,0,1-1.185.491,1.692,1.692,0,0,1-1.182-.49,1.616,1.616,0,0,1-.5-1.174l.012-6.4h-.012a1.688,1.688,0,0,1,.5-1.188,1.716,1.716,0,0,1,1.182-.491,1.726,1.726,0,0,1,1.195.491,1.692,1.692,0,0,1,.5,1.187" transform="translate(171.22 -277.548)"/></g><g transform="translate(21.48 70.649)"><path class="a" d="M-200.522,266.458a1.647,1.647,0,0,1-.5,1.174l-4.563,4.529a1.71,1.71,0,0,1-1.185.482,1.68,1.68,0,0,1-1.2-.491,1.664,1.664,0,0,1-.478-1.175,1.628,1.628,0,0,1,.5-1.177l4.559-4.529a1.681,1.681,0,0,1,1.185-.479,1.62,1.62,0,0,1,1.182.491,1.622,1.622,0,0,1,.5,1.174" transform="translate(208.439 -264.792)"/></g><g transform="translate(10.259 48.236)"><path class="a" d="M-214.045,235.687a1.663,1.663,0,0,1-1.659,1.666h-.016l-6.45-.01v.01a1.682,1.682,0,0,1-1.185-.491,1.633,1.633,0,0,1-.5-1.174,1.647,1.647,0,0,1,.5-1.187,1.7,1.7,0,0,1,1.182-.491v.012h6.45a1.663,1.663,0,0,1,1.675,1.65v.016" transform="translate(223.85 -234.009)"/></g><g transform="translate(21.502 21.328)"><path class="a" d="M-200.491,203.248a1.683,1.683,0,0,1-1.675,1.666,1.717,1.717,0,0,1-1.195-.491l-4.556-4.53a1.645,1.645,0,0,1-.492-1.174,1.7,1.7,0,0,1,.5-1.187,1.7,1.7,0,0,1,1.18-.479,1.675,1.675,0,0,1,1.195.489l4.551,4.52v.012a1.622,1.622,0,0,1,.5,1.174" transform="translate(208.408 -197.053)"/></g><g transform="translate(48.614 10.179)"><path class="a" d="M-167.8,183.406v6.4a1.661,1.661,0,0,1-.5,1.174v.012a1.723,1.723,0,0,1-1.195.491,1.69,1.69,0,0,1-1.182-.491,1.665,1.665,0,0,1-.5-1.187v-6.4a1.619,1.619,0,0,1,.5-1.175v-.012a1.684,1.684,0,0,1,1.182-.479,1.717,1.717,0,0,1,1.195.479v.012a1.661,1.661,0,0,1,.5,1.174" transform="translate(171.172 -181.74)"/></g><g transform="translate(71.226 21.385)"><path class="a" d="M-132.189,198.8a1.7,1.7,0,0,1-.5,1.174l-4.572,4.52a1.644,1.644,0,0,1-1.18.491,1.728,1.728,0,0,1-1.195-.491,1.67,1.67,0,0,1-.483-1.174,1.7,1.7,0,0,1,.493-1.187l4.571-4.52a1.663,1.663,0,0,1,1.185-.479,1.642,1.642,0,0,1,1.181.491,1.673,1.673,0,0,1,.5,1.174" transform="translate(140.116 -197.131)"/></g></g></g></g></svg>