<svg xmlns="http://www.w3.org/2000/svg" width="48.24" height="48.943" viewBox="0 0 48.24 48.943"><defs><style>.a{fill:#fff;}</style></defs><g transform="translate(-266.92 -184.096)"><path class="a" d="M314.92,187.691a.832.832,0,0,0-.974-.142l-5.938,3.268v-4.624a.824.824,0,0,0-.82-.82h-.006a.8.8,0,0,0-.561.228c-.037.037-1.289,1.239-3.027,2.91l-4.945,4.772v-7.066a.825.825,0,0,0-.82-.826h-.006a.813.813,0,0,0-.758.5l-5.2,12.035v-13a.82.82,0,1,0-1.64,0v12.9L285.053,185.9a.8.8,0,0,0-.444-.444.824.824,0,0,0-1.134.771v7.109c-3.767-3.638-7.874-7.621-7.966-7.707a.819.819,0,0,0-1.159.012.791.791,0,0,0-.234.58v4.618l-5.981-3.28a.823.823,0,0,0-1.116.327.89.89,0,0,0-.1.395v32.456a.813.813,0,0,0,.425.721l18.7,10.284a10.248,10.248,0,0,0,9.995,0l18.694-10.284a.83.83,0,0,0,.425-.728V188.27A.8.8,0,0,0,314.92,187.691Zm-8.558.462v3.564l-8.644,4.76C300.585,193.721,304.327,190.12,306.362,188.153Zm-21.235,6.7V190.2l3.477,8.071c-.561-.53-1.406-1.344-2.4-2.3l-1.091-1.054C285.121,194.9,285.121,194.88,285.127,194.855Zm-9.372-3.107v-3.588c1.881,1.819,5.7,5.518,8.626,8.324Zm-7.2,28.5V189.664l17.06,9.378v30.606Zm26.266,10.241a8.692,8.692,0,0,1-7.559,0V199.849a9.74,9.74,0,0,0,1.091.345.8.8,0,0,0,.29.074,9.893,9.893,0,0,0,1.332.24,1.19,1.19,0,0,0,.21,0c.123,0,.24.012.364.018s.277.025.432.025h.111a9.978,9.978,0,0,0,2.343-.277.805.805,0,0,0,.3-.074,11.214,11.214,0,0,0,1.091-.345Zm-1.289-32.308L297,190.194v4.686C295.578,196.242,294.32,197.451,293.537,198.185Zm19.977,22.036-17.06,9.427V199.042l17.06-9.378Z"/></g></svg>