<svg xmlns="http://www.w3.org/2000/svg" width="28.502" height="28.85" viewBox="0 0 28.502 28.85"><defs><style>.a{fill:#fff;}</style></defs><path class="a" d="M32.125,203.168c-.176.16-.344.33-.506.506a8.052,8.052,0,0,0-2.122,5.448v12.637a8.141,8.141,0,0,0,8.158,8.105H49.84a8.165,8.165,0,0,0,5.6-2.218L53.53,229.56l1.914-1.914a.229.229,0,0,1,.024-.022l.275-.276a.271.271,0,0,0,.034-.036A8.044,8.044,0,0,0,58,221.758V209.121a8.144,8.144,0,0,0-8.16-8.107H37.655A8.154,8.154,0,0,0,32.125,203.168Zm16.616-.032c4.921,0,7.311,2.348,7.311,7.18v10.3c0,4.831-2.39,7.18-7.311,7.18H38.69c-5.123,0-7.311-2.148-7.311-7.18v-10.3c0-4.832,2.392-7.18,7.311-7.18Z" transform="translate(-29.497 -201.014)"/><path class="a" d="M42.178,215.871a1.494,1.494,0,1,0,1.493-1.495A1.495,1.495,0,0,0,42.178,215.871Z" transform="translate(-37.293 -209.228)"/><path class="a" d="M46.828,226.541c0,.053,0,.106,0,.157a7.212,7.212,0,0,0,14.421,0c0-.051,0-.1,0-.157a7.212,7.212,0,1,0-14.425,0Zm12.426,0c0,.053,0,.106,0,.157a5.214,5.214,0,0,1-10.423,0c0-.051,0-.1,0-.157a5.215,5.215,0,1,1,10.431,0Z" transform="translate(-40.151 -212.273)"/></svg>