<svg xmlns="http://www.w3.org/2000/svg" width="808.594" height="1009.965" viewBox="0 0 808.594 1009.965"><defs><style>.a{fill:#fdd000;}</style></defs><path class="a" d="M548.389,584.928c11.313-30.369-9.233-63.5-41.522-66.269-45.2-3.879-91.342-14.49-128.839-32.415A366.09,366.09,0,0,1,274,412.432c-26.7-25.731-47.666-55.113-62.216-87.262-35.89-74.124-37.723-152.251-5.323-220.033C229.387,57.184,270.74,15.632,321.79-8.225a21.9,21.9,0,0,0,10.218-9.749C393.09-136.641,508.075-183.9,630.532-167.408c31.511,4.245,58.478-22.646,54.825-54.233a49.2,49.2,0,0,0-42.414-42.982C487.811-285.788,345.7-224.734,263.48-94.682A49.025,49.025,0,0,1,247.5-79.009C191.52-44.961,146.421,4.419,118.4,63.037c-45.305,94.776-43.546,202.51,4.969,303.508,19.446,42.642,46.971,81.365,81.922,115.209,37.227,37.8,81.178,68.909,130.639,92.553,46.167,22.069,103.193,36.463,161.85,41.579a49.756,49.756,0,0,0,50.608-30.958" transform="matrix(0.966, 0.259, -0.259, 0.966, 76.714, 237.411)"/></svg>