<svg xmlns="http://www.w3.org/2000/svg" width="638.481" height="707.871" viewBox="0 0 638.481 707.871"><defs><style>.a{fill:#68d8a2;}</style></defs><path class="a" d="M577.3,50.32q-1.544-7.707-3.474-15.326C567.176,8.736,539.2-6.166,513.518,2.446l-2.032.686c-23.446,7.917-35.971,32.743-30.075,56.776q1.241,5.058,2.235,10.151a37.145,37.145,0,0,1,.751,3.836c15.346,89.476-24.127,173.467-108.348,230.7-13.282,8.767-36.048,24.108-63.728,42.729l-9.833,6.8c-4.858,3.224-12.231,8.208-19.667,13.243a21.34,21.34,0,0,0-9.079,17.927,150.452,150.452,0,0,1-4.232,33.985c-20.536,82.91-111.188,136.622-225.6,144.6C17.3,565.737-2.308,589.338.219,615.895c.032.319.062.64.092.96a47.24,47.24,0,0,0,50.1,42.582c156.152-10.835,280.9-91.847,311.978-217.4,1.238-5.076,2.3-10.1,3.131-15.238l.291-.171c27.39-18.452,49.865-33.621,63.906-42.9C544.375,305.767,600.062,184.271,578.74,58.392c-.418-2.786-.9-5.4-1.438-8.071" transform="matrix(0.996, -0.087, 0.087, 0.996, 0, 50.831)"/></svg>