<svg xmlns="http://www.w3.org/2000/svg" width="793.018" height="834.703" viewBox="0 0 793.018 834.703"><defs><style>.a{fill:#ee6700;}</style></defs><path class="a" d="M2237.248,4850.772c15.721-36.241,20.807-100.435-5.626-165.208-18.139-44.449-45.07-78.564-80.253-101.47-30.189-19.567-68.123-30.7-111.409-32.861a5.4,5.4,0,0,1-4.912-3.839c-3.817-12.712-8.229-25.256-13.174-37.379-.425-1.037-.871-2.093-1.331-3.166a5.431,5.431,0,0,1,1.081-5.9,196.933,196.933,0,0,0,31.293-43.118c28.727-54.579,31.068-120.64,6.358-181.191-26.689-65.4-82.28-116.567-148.779-136.967-.158-.058-.317-.116-.475-.171a58.137,58.137,0,0,0-15.969-3.329c-24.138-1.575-42.225-1.311-52.108,20.769a35.952,35.952,0,0,0,28.024,39.581,156.958,156.958,0,0,1,19.421,5.379,11.255,11.255,0,0,0,1.184.368c46.262,14.007,87.912,50.382,107.839,99.21,17.373,42.571,16,88.359-3.662,125.684-10.852,20.478-28.006,38.175-47.654,50.206a14.594,14.594,0,0,0-5.255,19.893,294.79,294.79,0,0,1,19.167,37.59,351.07,351.07,0,0,1,20.5,71.082,14.466,14.466,0,0,0,15.521,11.962c47.293-4.466,89.428,2.412,118.6,21.324,23.876,15.6,41.994,38.848,55.178,71.156,19.16,46.951,20.38,90.162,3.606,124.725-.075.157-.152.313-.227.467-9.691,19.773,2.259,43.267,24.033,46.546A33.388,33.388,0,0,0,2234,4860.046Z" transform="translate(-4069.111 -1721.634) rotate(-40)"/></svg>