<svg xmlns="http://www.w3.org/2000/svg" width="598.919" height="654.87" viewBox="0 0 598.919 654.87"><defs><style>.a{fill:#7359e4;}</style></defs><path class="a" d="M2097.943,1215.4q-1.361-6.8-3.063-13.514c-5.865-23.154-30.534-36.295-53.18-28.7l-1.792.6c-20.674,6.982-31.718,28.872-26.52,50.064q1.095,4.46,1.971,8.95a32.778,32.778,0,0,1,.663,3.383c13.532,78.9-21.275,152.96-95.54,203.431-11.712,7.73-31.786,21.258-56.194,37.678l-8.67,5.994c-4.283,2.843-10.785,7.238-17.342,11.678a18.818,18.818,0,0,0-8.006,15.808,132.646,132.646,0,0,1-3.732,29.968c-18.108,73.109-98.044,120.471-198.93,127.508a41.818,41.818,0,0,0-38.527,45.863c.029.282.055.564.081.847a41.656,41.656,0,0,0,44.177,37.548c137.692-9.555,247.693-80.989,275.1-191.7,1.092-4.476,2.027-8.9,2.761-13.436l.256-.151c24.152-16.271,43.97-29.647,56.352-37.827,101.1-68.744,150.207-175.877,131.406-286.875-.369-2.456-.794-4.761-1.269-7.117" transform="translate(1894.077 2060.037) rotate(-171)"/></svg>