<svg xmlns="http://www.w3.org/2000/svg" width="29.707" height="25.35" viewBox="0 0 29.707 25.35"><defs><style>.a{fill:#fff;}</style></defs><path class="a" d="M57.485,36.96a12.917,12.917,0,0,1-2.533,2.409l-.143.1.008.178c.012.284.018.565.018.836A18.347,18.347,0,0,1,27.778,56.638a13.429,13.429,0,0,0,8.564-2.881l.73-.572-.926-.017a6.237,6.237,0,0,1-5.639-3.823,6.877,6.877,0,0,0,2.551-.2l1.346-.368-1.37-.274a6.254,6.254,0,0,1-4.985-5.656,6.919,6.919,0,0,0,2.618.608l1.15.036-.957-.639a6.241,6.241,0,0,1-2.154-7.905,19.029,19.029,0,0,0,13.455,6.6l.437.023-.1-.427a6.241,6.241,0,0,1,10.628-5.688l.125.133.18-.035a13.453,13.453,0,0,0,3.458-1.187,6.271,6.271,0,0,1-2.409,2.62l-1.322.793L54.69,37.6A13.616,13.616,0,0,0,57.485,36.96Z" transform="translate(-27.778 -33.488)"/></svg>