<svg xmlns="http://www.w3.org/2000/svg" width="489.615" height="471.599" viewBox="0 0 489.615 471.599"><defs><style>.a{fill:#b39cf2;}</style></defs><path class="a" d="M487.116,1026.8a48.625,48.625,0,0,0-34.97-31.97l-13.94-3.3a190.6,190.6,0,0,0-22.34-5.5,248.418,248.418,0,0,0-25.48-3.36,313.035,313.035,0,0,0-58.4.98,356.891,356.891,0,0,0-64.95,13.24,369.177,369.177,0,0,0-67.47,27.97,391.056,391.056,0,0,0-35.75,21.66,342.157,342.157,0,0,0-31.6,24.4,306.023,306.023,0,0,0-27.38,27.12,285.521,285.521,0,0,0-23.13,29.76,280.317,280.317,0,0,0-17.02,28.86,265.954,265.954,0,0,0-15.3,36.87,303.794,303.794,0,0,0-10.24,40.27,352.218,352.218,0,0,0-5.13,43.33,411.469,411.469,0,0,0,.01,46.06,7.872,7.872,0,0,1-4.82,7.7c-9.88,4.14-19.65,8.52-29.21,13.13v109.33c7.88-5.05,15.47-9.54,22.31-13.21a509.629,509.629,0,0,1,49.96-23.35,494.1,494.1,0,0,1,49.96-17.2,21.4,21.4,0,0,0,11.8-8.57,20.772,20.772,0,0,0,3.18-15.76,411.021,411.021,0,0,1-6.99-49.65,321.633,321.633,0,0,1-.33-46.46,239.676,239.676,0,0,1,6.54-42.19,177.628,177.628,0,0,1,13.62-36.89,185.916,185.916,0,0,1,11.2-18.95,188.261,188.261,0,0,1,15.95-20.42,206.909,206.909,0,0,1,19.17-18.75,245.69,245.69,0,0,1,22.5-17.13,297.294,297.294,0,0,1,25.94-15.58c32.41-17.38,64.31-28.27,94.81-32.36s59.23-1.36,85.45,8.12c.18.07.36.13.52.19l.19.07a48.3,48.3,0,0,0,16.22,2.98,47.642,47.642,0,0,0,29.1-9.64,46.534,46.534,0,0,0,16.14-22.38,47.526,47.526,0,0,0,2.36-12.89A48.325,48.325,0,0,0,487.116,1026.8Z" transform="translate(0.004 -981.751)"/></svg>