<svg xmlns="http://www.w3.org/2000/svg" width="307.596" height="598.482" viewBox="0 0 307.596 598.482"><defs><style>.a{fill:#b39cf2;}</style></defs><path class="a" d="M1366,766.86V884.01q-8.175-4.245-16.12-8.94a331.571,331.571,0,0,1-75.19-60.85,340.609,340.609,0,0,1-55.02-80.12,49.714,49.714,0,0,0-6.11-9.47,48.807,48.807,0,0,0-8.11-7.82,397.154,397.154,0,0,1-30.84-26.08,377.4,377.4,0,0,1-27.3-28.41,368.591,368.591,0,0,1-23.73-30.55,360.276,360.276,0,0,1-49.35-102.46,372.412,372.412,0,0,1-9.05-37.08,384.128,384.128,0,0,1-5.28-38.22c-3.7-42.38-.53-86.1,9.42-129.96a49.641,49.641,0,0,1,6.2-15.19,49.075,49.075,0,0,1,85.53,3.64,47.814,47.814,0,0,1,5.02,17.54,48.454,48.454,0,0,1-1.01,14.85c-7.72,34.32-10.2,68.23-7.35,100.81a280.7,280.7,0,0,0,12.01,60.6,262.518,262.518,0,0,0,25.42,56.18c22.2,36.76,53.39,67.98,92.69,92.77a21.819,21.819,0,0,1,8.82,11.03,241.764,241.764,0,0,0,17.78,38.02,248.226,248.226,0,0,0,23.72,34.08A243.286,243.286,0,0,0,1366,766.86Z" transform="translate(-1058.4 -285.528)"/></svg>