<svg xmlns="http://www.w3.org/2000/svg" width="437.116" height="331.403" viewBox="0 0 437.116 331.403"><defs><style>.a{fill:#68d8a2;}</style></defs><path class="a" d="M3002.469,410.52a240.724,240.724,0,0,1-40.57,13.32,176.985,176.985,0,0,1-39.05,4.61,185.35,185.35,0,0,1-21.96-1.37,189.838,189.838,0,0,1-25.44-4.94,208.47,208.47,0,0,1-25.41-8.57,245.571,245.571,0,0,1-25.48-12.28,295.734,295.734,0,0,1-25.66-16.03c-30.19-20.98-54.38-44.47-71.88-69.79-17.48-25.3-28.1-52.16-31.55-79.82-.02-.19-.05-.38-.07-.55l-.02-.2a48.323,48.323,0,0,0-4.71-15.8,47.462,47.462,0,0,0-9.22-12.68,47.952,47.952,0,0,0-12.58-8.88,47.255,47.255,0,0,0-14.79-4.38,46.157,46.157,0,0,0-12.48.17,47.585,47.585,0,0,0-12.56,3.74,48.664,48.664,0,0,0-26.21,55.39l3.39,13.92a193.106,193.106,0,0,0,5.24,22.4,249.7,249.7,0,0,0,8.58,24.23,312.563,312.563,0,0,0,27.38,51.59,356.907,356.907,0,0,0,41.29,51.85,368.539,368.539,0,0,0,55.55,47.43,389.679,389.679,0,0,0,35.53,22.02,339.7,339.7,0,0,0,36.09,17.07,303.678,303.678,0,0,0,36.59,12.09,284.065,284.065,0,0,0,37.02,7.09,278.857,278.857,0,0,0,33.44,2.07,266.462,266.462,0,0,0,39.8-3.11,303.56,303.56,0,0,0,40.52-9.15,352.524,352.524,0,0,0,35.31-12.68V392.24A323.035,323.035,0,0,1,3002.469,410.52Z" transform="translate(-2601.443 -192.817)"/></svg>