<svg xmlns="http://www.w3.org/2000/svg" width="259.263" height="473.83" viewBox="0 0 259.263 473.83"><defs><style>.a{fill:#68d8a2;}</style></defs><path class="a" d="M2116.459,789.91a343.969,343.969,0,0,1-3.92,38.57,334.832,334.832,0,0,1-7.15,33.59h-102.7c19.78-50.65,21.82-108.05,5.25-166.48-8.74-34.17-24.26-66.71-46.12-96.74a365.962,365.962,0,0,0-89.63-90.76c-4.48-3.2-9.23-6.37-14.14-9.43-.16-.11-.33-.21-.49-.31V388.24c.16.07.33.15.49.22a417.236,417.236,0,0,1,70.89,40.22c44.66,31.9,82.54,70.2,112.59,113.83,28.51,39.35,48.92,82.31,60.67,127.68a403.648,403.648,0,0,1,9.13,40.35,378.453,378.453,0,0,1,4.74,39.98A359.5,359.5,0,0,1,2116.459,789.91Z" transform="translate(-1857.559 -388.24)"/></svg>