<svg xmlns="http://www.w3.org/2000/svg" width="106" height="106" viewBox="0 0 106 106"><defs><style>.a{fill:#04be64;}.b{fill:none;}.c{fill:#fff;}</style></defs><g transform="translate(-414.551 -627.872)"><circle class="a" cx="53" cy="53" r="53" transform="translate(414.551 627.872)"/><g transform="translate(441.151 650.924)"><path class="b" d="M471.424,656.48h-.009" transform="translate(-444.856 -652.787)"/><path class="c" d="M494.1,666.254l-22.979-13.266a3.424,3.424,0,0,0-3.422,0l-22.979,13.266a3.416,3.416,0,0,0-1.711,2.954v26.541a3.416,3.416,0,0,0,1.711,2.954l22.979,13.266a3.424,3.424,0,0,0,3.422,0L494.1,698.7a3.407,3.407,0,0,0,1.7-2.954V669.208A3.407,3.407,0,0,0,494.1,666.254Zm-24.69-9.938L489.982,668.2,469.405,680.3,448.82,668.2Zm-22.661,15,20.791,12.237v24.017l-20.791-12Zm45.313,24.25-20.782,12V683.549L492.057,671.3Z" transform="translate(-443.005 -652.53)"/></g></g></svg>