<svg xmlns="http://www.w3.org/2000/svg" width="106" height="106" viewBox="0 0 106 106"><defs><style>.a{fill:#ea4678;}.b{fill:#fff;}</style></defs><g transform="translate(-1031.011 -623.477)"><g transform="translate(1031.011 623.477)"><circle class="a" cx="53" cy="53" r="53"/></g><g transform="translate(1060.272 690.502)"><path class="b" d="M1107.451,709.149h-42.8a2.337,2.337,0,0,1-2.337-2.337v-9.3a2.337,2.337,0,0,1,4.674,0v6.966h38.128v-6.966a2.337,2.337,0,0,1,4.674,0v9.3A2.337,2.337,0,0,1,1107.451,709.149Z" transform="translate(-1062.311 -695.172)"/></g><g transform="translate(1069.997 645.252)"><path class="b" d="M1086.837,681.264a2.337,2.337,0,0,1-2.337-2.337c0-6.038,3.51-9.365,6.606-12.3,2.773-2.628,4.962-4.7,4.962-8.417,0-.067-.251-6.767-9.231-6.767-7.66,0-9.443,7.017-9.515,7.315a2.337,2.337,0,1,1-4.542-1.1,14.422,14.422,0,0,1,14.057-10.892c6.052,0,9.407,2.435,11.155,4.479a11.257,11.257,0,0,1,2.75,6.962c0,5.724-3.411,8.957-6.42,11.81-2.763,2.618-5.148,4.88-5.148,8.907A2.337,2.337,0,0,1,1086.837,681.264Z" transform="translate(-1072.713 -646.769)"/></g><g transform="translate(1081.065 683.026)"><circle class="b" cx="2.946" cy="2.946" r="2.946" transform="translate(0)"/></g></g></svg>