<svg xmlns="http://www.w3.org/2000/svg" width="106" height="106" viewBox="0 0 106 106"><defs><style>.a{fill:#04be64;}.b{fill:#fff;}</style></defs><g transform="translate(-876.929 -625.962)"><circle class="a" cx="53" cy="53" r="53" transform="translate(876.929 625.962)"/><g transform="translate(900.956 649.99)"><path class="b" d="M926.145,709.606a6.305,6.305,0,0,1-5.649-3.5l-4.061-8.249a7.516,7.516,0,1,1-5.754-11.684l-4.054-8.226a6.31,6.31,0,0,1,2.86-8.421l8.233-4.048a7.523,7.523,0,1,1,11.693-5.763l8.231-4.055a6.282,6.282,0,0,1,8.415,2.866l6.25,12.752a3.118,3.118,0,0,1-3.756,3.877,3.708,3.708,0,0,0-2.507.311,3.784,3.784,0,1,0,5.123,4.947,3.051,3.051,0,0,1,1.514-1.544,3.117,3.117,0,0,1,3.815.925l.189.306,3.237,6.579a6.278,6.278,0,0,1-2.865,8.415l-28.144,13.864A6.235,6.235,0,0,1,926.145,709.606ZM916.458,693.4a3.125,3.125,0,0,1,2.828,1.784l4.562,9.265a2.552,2.552,0,0,0,3.411,1.155l28.15-13.867a2.539,2.539,0,0,0,1.163-3.4v0l-2.6-5.285a7.373,7.373,0,0,1-2.788,2.5,7.524,7.524,0,1,1-6.789-13.427,7.619,7.619,0,0,1,3.812-.771l-5.5-11.166a2.542,2.542,0,0,0-3.409-1.159l-9.281,4.571a3.164,3.164,0,0,1-2.107.237,3.12,3.12,0,0,1-2.308-3.787,3.731,3.731,0,0,0-.311-2.507,3.785,3.785,0,1,0-6.792,3.344,3.7,3.7,0,0,0,1.823,1.772,3.221,3.221,0,0,1,1.531,1.485,3.131,3.131,0,0,1-1.413,4.178l-9.3,4.572a2.561,2.561,0,0,0-1.158,3.418l4.572,9.28a3.153,3.153,0,0,1,.233,2.111A3.126,3.126,0,0,1,911.02,690a3.7,3.7,0,0,0-2.523.3,3.787,3.787,0,1,0,5.11,4.957,3.177,3.177,0,0,1,1.519-1.555A3.115,3.115,0,0,1,916.458,693.4Zm-.539,3.409.007.016Zm38.674-14.894-.017.038C954.582,681.94,954.587,681.927,954.592,681.915Zm-5.174-10.4.014,0ZM929.235,660.9l0,.016Z" transform="translate(-902.63 -651.664)"/></g></g></svg>