<svg xmlns="http://www.w3.org/2000/svg" width="106" height="106" viewBox="0 0 106 106"><defs><style>.a{fill:#7d56e9;}.b{fill:#fff;}</style></defs><g transform="translate(-722.373 -625.833)"><circle class="a" cx="53" cy="53" r="53" transform="translate(722.373 625.833)"/><g transform="translate(745.75 656.973)"><path class="b" d="M772.3,664.3a13.885,13.885,0,0,0-23.308,2.7,13.94,13.94,0,0,0,2.644,15.217,11.707,11.707,0,0,0,5.972,3.183,10.832,10.832,0,0,0,1.144.145l2.3.185-1.467,1.782a20.335,20.335,0,0,1-2.708,2.667,32.228,32.228,0,0,1-5.021,3.288l-.491.266c-2.072,1.1-3.933,2.3-3.982,4.868a3.859,3.859,0,0,0,1.749,3.635,4.683,4.683,0,0,0,2.5.621,15.668,15.668,0,0,0,6.5-1.95c9.445-5.005,16.1-13.129,17.8-21.712A18.4,18.4,0,0,0,772.3,664.3Zm.669,14.305c-1.83,9.261-9.5,16.288-16.079,19.77-.226.121-.444.241-.661.363a8.123,8.123,0,0,1-3.563,1.321,2.664,2.664,0,0,1-1.1-.225l-.089-.049a1.6,1.6,0,0,1-.83-1.249,1.965,1.965,0,0,1,1.758-2.055c.136-.033.274-.073.427-.122.185-.065.637-.258.878-.379a22.525,22.525,0,0,0,4.8-3.248l.282-.234c3.466-2.853,5.117-5.368,4.771-7.269a3.06,3.06,0,0,0-2.224-2.313,8.2,8.2,0,0,0-2.1-.355L758,682.418a8.059,8.059,0,0,1-4.239-2.329,10.988,10.988,0,0,1-2.039-11.84A10.888,10.888,0,0,1,769.97,666.2,15.3,15.3,0,0,1,772.969,678.606Z" transform="translate(-747.379 -659.143)"/><g transform="translate(32.238)"><path class="b" d="M806.784,664.3a13.885,13.885,0,0,0-23.308,2.7,13.942,13.942,0,0,0,2.643,15.217,11.713,11.713,0,0,0,5.973,3.183,10.834,10.834,0,0,0,1.144.145l2.3.185-1.467,1.782a20.335,20.335,0,0,1-2.708,2.667,32.228,32.228,0,0,1-5.021,3.288l-.491.266c-2.072,1.1-3.934,2.3-3.982,4.868a3.858,3.858,0,0,0,1.748,3.635,4.687,4.687,0,0,0,2.5.621,15.658,15.658,0,0,0,6.5-1.95c9.446-5.005,16.1-13.129,17.8-21.712A18.4,18.4,0,0,0,806.784,664.3Zm.668,14.305c-1.83,9.261-9.5,16.288-16.079,19.77-.225.121-.443.241-.66.363a8.124,8.124,0,0,1-3.563,1.321,2.664,2.664,0,0,1-1.1-.225l-.089-.049a1.6,1.6,0,0,1-.83-1.249,1.965,1.965,0,0,1,1.758-2.055c.136-.033.274-.073.426-.122.186-.065.637-.258.879-.379a22.547,22.547,0,0,0,4.8-3.248l.281-.234c3.466-2.853,5.118-5.368,4.772-7.269a3.062,3.062,0,0,0-2.224-2.313,8.2,8.2,0,0,0-2.1-.355l-1.226-.145a8.056,8.056,0,0,1-4.239-2.329,10.99,10.99,0,0,1-2.04-11.84,10.889,10.889,0,0,1,18.247-2.046A15.3,15.3,0,0,1,807.452,678.606Z" transform="translate(-781.863 -659.143)"/></g></g></g></svg>