<svg xmlns="http://www.w3.org/2000/svg" width="106" height="106" viewBox="0 0 106 106"><defs><style>.a{fill:#ee6700;}.b{fill:#fff;}</style></defs><g transform="translate(-1187.597 -623.477)"><circle class="a" cx="53" cy="53" r="53" transform="translate(1187.597 623.477)"/><g transform="translate(1210.731 646.645)"><path class="b" d="M1255.129,707.932a19.961,19.961,0,0,1-2.7-.181,20.184,20.184,0,0,1-14.385-8.875l-.05-.08a40.48,40.48,0,0,1-2.45-4.829c-1.184-2.616-2.428-5.361-4.538-7.368a22.938,22.938,0,0,0-6.268-3.787,35.451,35.451,0,0,1-4.458-2.344,17.531,17.531,0,0,1-2.713-27.215l0,0a16.738,16.738,0,0,1,1.729-1.508c.213-.159.411-.3.611-.435a17.784,17.784,0,0,1,24.672,4.754,35.863,35.863,0,0,1,2.4,4.562,22.774,22.774,0,0,0,3.767,6.226c2.007,2.109,4.752,3.354,7.407,4.557a39.778,39.778,0,0,1,4.792,2.432l.079.05a20.2,20.2,0,0,1,8.877,14.413c.7,5.185-.779,9.74-2.349,14.563l-.623,1.916-1.907.619C1263.051,706.7,1259.257,707.932,1255.129,707.932Zm-13.948-11.088a16.469,16.469,0,0,0,11.722,7.2c4.394.6,8.557-.76,12.965-2.2l.1-.032.032-.1c1.436-4.412,2.79-8.573,2.2-12.937a16.484,16.484,0,0,0-7.2-11.749,36.571,36.571,0,0,0-4.338-2.2c-3.027-1.371-6.109-2.769-8.616-5.405a25.761,25.761,0,0,1-4.464-7.259,32.229,32.229,0,0,0-2.136-4.073,14.027,14.027,0,0,0-19.434-3.694c-.156.107-.314.219-.469.334a13.068,13.068,0,0,0-1.323,1.156h0a13.791,13.791,0,0,0,2.085,21.433,32.083,32.083,0,0,0,3.977,2.082,25.853,25.853,0,0,1,7.3,4.483c2.638,2.51,4.1,5.732,5.385,8.574A36.887,36.887,0,0,0,1241.181,696.844Z" transform="translate(-1212.343 -648.259)"/></g><path class="b" d="M1221.516,669.152h0a1.558,1.558,0,0,1-1.219-1.835,1.612,1.612,0,0,1,.1-.313,9.534,9.534,0,0,1,5.019-5.054,1.553,1.553,0,0,1,2.011.883,1.534,1.534,0,0,1,.077.266l0,.015a1.571,1.571,0,0,1-.937,1.756,6.478,6.478,0,0,0-3.306,3.384A1.564,1.564,0,0,1,1221.516,669.152Z" transform="translate(-2.128 -2.499)"/><path class="b" d="M1249.7,676.13h0a1.558,1.558,0,0,0-1.835-1.219,1.6,1.6,0,0,0-.313.1,9.536,9.536,0,0,0-5.054,5.018,1.554,1.554,0,0,0,.885,2.012,1.511,1.511,0,0,0,.264.077l.015,0a1.571,1.571,0,0,0,1.756-.937,6.478,6.478,0,0,1,3.384-3.306A1.564,1.564,0,0,0,1249.7,676.13Z" transform="translate(-3.569 -3.348)"/><path class="b" d="M1253.69,704.072h0a1.558,1.558,0,0,1-1.219-1.835,1.583,1.583,0,0,1,.1-.313,9.531,9.531,0,0,1,5.019-5.054,1.553,1.553,0,0,1,2.011.883,1.531,1.531,0,0,1,.077.265l0,.015a1.571,1.571,0,0,1-.937,1.756,6.478,6.478,0,0,0-3.306,3.384A1.565,1.565,0,0,1,1253.69,704.072Z" transform="translate(-4.224 -4.774)"/></g></svg>