<svg xmlns="http://www.w3.org/2000/svg" width="106" height="106" viewBox="0 0 106 106"><defs><style>.a{fill:#0093d6;}.b{fill:none;stroke-miterlimit:10;}.c,.e{fill:#fff;}.d,.e{stroke:none;}</style></defs><g transform="translate(-262.405 -627.119)"><circle class="a" cx="53" cy="53" r="53" transform="translate(262.405 627.119)"/><g class="b" transform="translate(-2.41 -1.634)"><path class="d" d="M336.234,670.558c0,8.2-7.582,16.541-8.636,20.031a1,1,0,0,1-.965.7H309a1,1,0,0,1-.965-.7c-1.055-3.49-8.636-11.833-8.636-20.031a18.331,18.331,0,0,1,16.916-18.267c.175-.02.345-.042.536-.052.169-.01.349-.022.528-.022s.35-.01.519-.01c.3,0,.592.01.888.032.1.006.184.02.279.027A18.331,18.331,0,0,1,336.234,670.558Z"/><path class="e" d="M 317.8940124511719 656.2069702148438 C 317.8033447265625 656.2069702148438 317.6663513183594 656.2069702148438 317.6170349121094 656.2099609375 L 317.4962158203125 656.21728515625 L 317.3751525878906 656.21728515625 C 317.3219604492188 656.21728515625 317.2005310058594 656.2246704101562 317.1029968261719 656.2306518554688 L 317.090576171875 656.2313842773438 L 317.0760803222656 656.2322998046875 L 317.0615539550781 656.2330932617188 C 317.0299987792969 656.2348022460938 316.9451293945312 656.24462890625 316.8702392578125 656.2532958984375 L 316.7569274902344 656.2662353515625 L 316.6880798339844 656.2739868164062 L 316.6189880371094 656.279296875 C 313.0303344726562 656.55615234375 309.6975402832031 658.1635131835938 307.2344970703125 660.8052368164062 C 304.758544921875 663.4608154296875 303.3949890136719 666.9244995117188 303.3949890136719 670.5582885742188 C 303.3949890136719 674.9993286132812 306.568359375 680.0974731445312 308.8854370117188 683.8199462890625 C 309.6897277832031 685.1121215820312 310.3960571289062 686.2468872070312 310.9432373046875 687.2879028320312 L 324.6858215332031 687.2879028320312 C 325.2330017089844 686.2468872070312 325.9393310546875 685.1121826171875 326.7436218261719 683.8200073242188 C 329.0606994628906 680.0974731445312 332.2340698242188 674.9993286132812 332.2340698242188 670.5582885742188 C 332.2340698242188 666.8878173828125 330.8485107421875 663.3981323242188 328.3325805664062 660.73193359375 C 325.8265991210938 658.0762329101562 322.4443054199219 656.4873657226562 318.8088073730469 656.2579956054688 L 318.7762145996094 656.2559204101562 L 318.7436218261719 656.2533569335938 C 318.6352844238281 656.2447509765625 318.5478515625 656.2348022460938 318.4898071289062 656.2281494140625 C 318.2959289550781 656.214111328125 318.0955200195312 656.2069702148438 317.8940124511719 656.2069702148438 M 317.8940124511719 652.2069702148438 C 318.1903381347656 652.2069702148438 318.4857788085938 652.21728515625 318.7821044921875 652.2388305664062 C 318.8812255859375 652.244384765625 318.9662780761719 652.2584228515625 319.0606994628906 652.2659301757812 C 328.6458129882812 652.8707275390625 336.2340698242188 660.8189697265625 336.2340698242188 670.5582885742188 C 336.2340698242188 678.756103515625 328.6523742675781 687.0997314453125 327.5978393554688 690.5895385742188 C 327.4697570800781 691.01123046875 327.0733947753906 691.2879028320312 326.6330871582031 691.2879028320312 L 308.9960021972656 691.2879028320312 C 308.5556945800781 691.2879028320312 308.1593017578125 691.01123046875 308.0312194824219 690.5895385742188 C 306.9767150878906 687.0997314453125 299.3949890136719 678.756103515625 299.3949890136719 670.5582885742188 C 299.3949890136719 660.903076171875 306.85986328125 653.0203857421875 316.311279296875 652.2911376953125 C 316.4861145019531 652.2715454101562 316.65625 652.2490844726562 316.8469543457031 652.2388305664062 C 317.0161437988281 652.228515625 317.1956481933594 652.21728515625 317.3751525878906 652.21728515625 C 317.5452880859375 652.2069702148438 317.7247924804688 652.2069702148438 317.8940124511719 652.2069702148438 Z"/></g><path class="c" d="M322.709,714.011a4.007,4.007,0,1,1-8.014,0Z" transform="translate(-3.406 -5.66)"/><g transform="translate(305.747 700.872)"><path class="c" d="M326.491,709.75H310.14a1.373,1.373,0,0,1-1.373-1.372v-1.129A1.238,1.238,0,0,1,310,706.011h16.622a1.238,1.238,0,0,1,1.238,1.238v1.129A1.373,1.373,0,0,1,326.491,709.75Z" transform="translate(-308.767 -706.011)"/></g><g transform="translate(305.747 693.393)"><path class="c" d="M326.491,701.75H310.14a1.373,1.373,0,0,1-1.373-1.372v-1.129A1.238,1.238,0,0,1,310,698.011h16.622a1.238,1.238,0,0,1,1.238,1.238v1.129A1.373,1.373,0,0,1,326.491,701.75Z" transform="translate(-308.767 -698.011)"/></g></g></svg>