<svg xmlns="http://www.w3.org/2000/svg" width="106.1" height="106.1" viewBox="0 0 106.1 106.1"><defs><style>.a{fill:#ea4678;stroke:#fff;stroke-miterlimit:10;stroke-width:0.1px;}.b{fill:#fff;}</style></defs><g transform="translate(-569.01 -627.63)"><circle class="a" cx="53" cy="53" r="53" transform="translate(569.06 627.68)"/><path class="b" d="M649.064,700.813l-15.76-27.3v-18.2a1.87,1.87,0,0,0-1.87-1.87H613.2a2.639,2.639,0,0,0-2.045,4.307l3.413,4.183v11.58l-15.76,27.3a6.9,6.9,0,0,0,0,6.975l0,0h0a6.9,6.9,0,0,0,6.036,3.484h38.178a6.9,6.9,0,0,0,4.917-2.021,7.084,7.084,0,0,0,1.121-1.466A6.906,6.906,0,0,0,649.064,700.813Zm-31.007-25.867a1.878,1.878,0,0,0,.25-.935V661.264a1.874,1.874,0,0,0-.421-1.183l-2.369-2.9h14.046v2.214h-3.592a1.87,1.87,0,1,0,0,3.739h3.592v2h-3.592a1.87,1.87,0,1,0,0,3.739h3.592v2.006h-3.592a1.87,1.87,0,1,0,0,3.739h3.709a1.915,1.915,0,0,0,.133.323l5.834,10.106a45.708,45.708,0,0,0-7.317,2.513c-3.27,1.332-6.652,2.71-9.451,2.71a10.939,10.939,0,0,1-7.642-3.517Zm-13.209,32.59a3.234,3.234,0,0,1-2.8-4.856l7.261-12.578a14.279,14.279,0,0,0,9.57,3.911c3.532,0,7.258-1.519,10.861-2.987a33.293,33.293,0,0,1,7.889-2.537l8.19,14.19a3.207,3.207,0,0,1,0,3.24,3.394,3.394,0,0,1-.238.358,3.2,3.2,0,0,1-2.562,1.257Z" transform="translate(-1.876 -1.678)"/></g></svg>