<svg xmlns="http://www.w3.org/2000/svg" width="478.174" height="307.195" viewBox="0 0 478.174 307.195"><defs><style>.a{fill:#66bee7;}</style></defs><path class="a" d="M1181,306.96V414.61q-4.665,2.04-9.42,3.98c-15.66,6.15-40.8,16.31-71.42,28.66l-.32.11c-1.89,4.85-3.97,9.54-6.24,14.25-56.5,116.33-195.36,169.61-350.33,147.73a47.244,47.244,0,0,1-40.14-52.07c.04-.32.07-.64.11-.96,3.05-26.5,27.14-45.5,53.55-41.78,113.55,15.99,213.38-17.68,250.71-94.5a150.069,150.069,0,0,0,11.21-32.35,21.353,21.353,0,0,1,12.61-15.65c8.32-3.37,16.57-6.72,21.99-8.86l11.03-4.6c30.94-12.46,56.4-22.73,71.21-28.54A300.835,300.835,0,0,0,1181,306.96Z" transform="translate(-702.822 -306.96)"/></svg>